<svg width="200" height="32" viewBox="0 0 200 32" fill="none" xmlns="http://www.w3.org/2000/svg">
<rect width="7.12346" height="23.0036" rx="3.56173" transform="matrix(-0.723067 -0.690777 0.713892 -0.700256 17.6415 27.1454)" fill="url(#paint0_linear_744_500)"/>
<rect width="7.12346" height="14.9228" rx="3.56173" transform="matrix(-0.723068 -0.690777 0.713892 -0.700256 29.9536 28.2855)" fill="url(#paint1_linear_744_500)"/>
<rect width="7.12346" height="30.824" rx="3.56173" transform="matrix(-0.723067 -0.690777 0.713892 -0.700256 5.15076 26.5054)" fill="url(#paint2_linear_744_500)"/>
<path d="M55.444 4.60181H49.7944C48.4669 4.60181 47.5099 5.54868 47.5099 6.86208V24.1196C47.5099 25.2498 48.436 26.1966 49.6092 26.1966C50.7514 26.1966 51.6776 25.2498 51.6776 24.1196V18.4078H55.444C60.26 18.4078 63.3472 15.445 63.3472 11.5354C63.3472 7.68678 60.26 4.60181 55.444 4.60181ZM55.2587 14.8952H51.6776V8.1144H55.2587C57.5741 8.1144 59.303 9.03073 59.303 11.5354C59.303 14.0705 57.5741 14.8952 55.2587 14.8952Z" fill="#181818"/>
<path d="M75.4613 9.94706C72.6828 9.94706 70.7687 12.4517 70.6453 13.5513V12.0241C70.6453 10.9245 69.7191 10.0081 68.6386 10.0081C67.5272 10.0081 66.601 10.9245 66.601 12.0241V24.1502C66.601 25.2192 67.5272 26.1355 68.6386 26.1355C69.7191 26.1355 70.6453 25.2192 70.6453 24.1502V16.789C70.7996 15.5367 72.3432 13.6735 74.7821 13.6735C76.5109 13.6735 77.3753 12.9099 77.3753 11.7797C77.3753 10.8023 76.727 9.94706 75.4613 9.94706Z" fill="#181818"/>
<path d="M87.1673 9.91651C83.617 9.91651 78.9245 12.635 78.9245 18.0718C78.9245 23.5393 83.617 26.1966 87.1673 26.1966C90.6867 26.1966 95.4101 23.5393 95.4101 18.0718C95.4101 12.635 90.6867 9.91651 87.1673 9.91651ZM87.1673 13.3986C89.3283 13.3986 91.3967 15.109 91.3967 18.0718C91.3967 21.0041 89.3283 22.7146 87.1673 22.7146C84.9754 22.7146 82.9378 21.0041 82.9378 18.0718C82.9378 15.109 84.9754 13.3986 87.1673 13.3986Z" fill="#181818"/>
<path d="M104.008 9.91651C101.075 9.91651 98.2346 11.5048 98.2346 14.5592C98.2346 16.7279 99.5312 18.3773 102.649 19.2325L104.409 19.7518C105.891 20.1794 106.23 20.8514 106.23 21.3706C106.23 22.2259 105.397 22.8673 103.884 22.8673C102.835 22.8673 101.847 22.5619 100.951 21.4623C100.581 21.0041 100.118 20.4848 99.2843 20.4848C98.1729 20.4848 97.7407 21.3401 97.7407 22.0121C97.7407 22.9589 98.4198 23.7225 98.5742 23.9363C99.4386 24.9749 101.106 26.1355 103.884 26.1355C107.095 26.1355 110.244 24.5167 110.244 21.1568C110.244 18.4384 108.175 17.2777 105.706 16.6057L103.822 16.0559C102.402 15.6588 102.217 15.0174 102.217 14.5287C102.217 13.6735 102.927 13.0931 104.131 13.0931C105.026 13.0931 105.736 13.4291 106.354 14.1316C106.879 14.7731 107.465 14.9869 108.052 14.9869C108.947 14.9869 109.626 14.4676 109.626 13.4902C109.626 12.8488 109.318 12.4211 109.132 12.1462C108.114 10.7412 106.107 9.91651 104.008 9.91651Z" fill="#181818"/>
<path d="M122.148 9.91651C119.956 9.91651 118.197 11.0772 117.579 12.5128V11.9935C117.579 10.9245 116.653 10.0081 115.542 10.0081C114.461 10.0081 113.473 10.9245 113.473 11.9935V30.0147C113.473 31.1143 114.399 32 115.511 32C116.591 32 117.548 31.1143 117.548 30.0147V24.5167C117.579 24.4251 117.579 24.3029 117.579 24.1807V23.6004C117.826 24.5472 119.462 26.1966 122.148 26.1966C125.544 26.1966 129.619 23.6004 129.619 18.0413C129.619 12.6044 125.513 9.91651 122.148 9.91651ZM121.407 22.7451C119.679 22.7451 117.394 21.4928 117.394 18.0413C117.394 14.5898 119.679 13.3375 121.407 13.3375C123.445 13.3375 125.575 14.9258 125.575 18.0413C125.575 21.1874 123.445 22.7451 121.407 22.7451Z" fill="#181818"/>
<path d="M140.217 9.91651C136.698 9.91651 132.098 12.5739 132.098 18.0718C132.098 23.6309 136.451 26.1355 140.557 26.1355C142.502 26.1355 144.045 25.6163 145.187 24.8221C145.959 24.1807 146.175 23.6309 146.175 23.1422C146.175 22.3786 145.651 21.7677 144.786 21.7677C144.261 21.7677 143.829 22.0121 143.273 22.2564C142.347 22.6535 141.822 22.8978 140.711 22.8978C138.457 22.8978 136.667 21.7066 136.296 19.4769L145.465 19.538C147.101 19.538 147.997 18.9882 147.997 17.3999C147.997 12.6655 143.736 9.91651 140.217 9.91651ZM140.217 13.3986C141.977 13.3986 143.706 14.376 144.014 16.7279H136.296C136.574 14.376 138.457 13.3986 140.217 13.3986Z" fill="#181818"/>
<path d="M160.244 9.94706C157.466 9.94706 155.552 12.4517 155.428 13.5513V12.0241C155.428 10.9245 154.502 10.0081 153.422 10.0081C152.31 10.0081 151.384 10.9245 151.384 12.0241V24.1502C151.384 25.2192 152.31 26.1355 153.422 26.1355C154.502 26.1355 155.428 25.2192 155.428 24.1502V16.789C155.583 15.5367 157.126 13.6735 159.565 13.6735C161.294 13.6735 162.159 12.9099 162.159 11.7797C162.159 10.8023 161.51 9.94706 160.244 9.94706Z" fill="#181818"/>
<path d="M174.583 9.94706C171.249 9.94706 169.427 12.4517 169.304 13.5513V12.0241C169.304 10.9245 168.378 10.0081 167.297 10.0081C166.186 10.0081 165.26 10.9245 165.26 12.0241V24.1502C165.26 25.2498 166.186 26.1355 167.297 26.1355C168.378 26.1355 169.304 25.2498 169.304 24.1502V16.789C169.427 15.9337 170.354 13.368 173.132 13.368C174.953 13.368 176.404 14.4982 176.404 17.2471V24.1502C176.404 25.2498 177.331 26.1355 178.411 26.1355C179.523 26.1355 180.449 25.2498 180.449 24.1502V17.2471C180.449 11.963 177.701 9.94706 174.583 9.94706Z" fill="#181818"/>
<path d="M197.932 10.0081C196.82 10.0081 195.894 10.9245 195.894 11.9935V12.5128C195.277 11.0772 193.517 9.91651 191.325 9.91651C187.96 9.91651 183.854 12.6044 183.854 18.0413C183.854 23.6004 187.929 26.1966 191.325 26.1966C194.011 26.1966 195.647 24.5472 195.894 23.6004V24.1807C195.894 25.2803 196.82 26.1661 197.932 26.1661C199.012 26.1661 200 25.2803 200 24.1807V11.9935C200 10.9245 199.012 10.0081 197.932 10.0081ZM192.066 22.7451C190.028 22.7451 187.898 21.1874 187.898 18.0413C187.898 14.9258 190.028 13.3375 192.066 13.3375C193.795 13.3375 196.079 14.5898 196.079 18.0413C196.079 21.4928 193.795 22.7451 192.066 22.7451Z" fill="#181818"/>
<defs>
<linearGradient id="paint0_linear_744_500" x1="3.56173" y1="0" x2="3.56173" y2="23.0036" gradientUnits="userSpaceOnUse">
<stop stop-color="#BB712C"/>
<stop offset="1" stop-color="#FFB500"/>
</linearGradient>
<linearGradient id="paint1_linear_744_500" x1="3.56173" y1="0" x2="3.56173" y2="14.9228" gradientUnits="userSpaceOnUse">
<stop stop-color="#AE3A30"/>
<stop offset="1" stop-color="#F42F1F"/>
</linearGradient>
<linearGradient id="paint2_linear_744_500" x1="3.56173" y1="-4.40792e-09" x2="2.92227" y2="31.1273" gradientUnits="userSpaceOnUse">
<stop offset="0.0427387" stop-color="#34A853"/>
<stop offset="1" stop-color="#34DD62"/>
</linearGradient>
</defs>
</svg>
